<?xml version="1.0" encoding="utf-8"?>
<!-- Generator: Adobe Illustrator 22.1.0, SVG Export Plug-In . SVG Version: 6.00 Build 0)  -->
<svg version="1.1" id="Слой_1" xmlns="http://www.w3.org/2000/svg" xmlns:xlink="http://www.w3.org/1999/xlink" x="0px" y="0px"
	 viewBox="0 0 832.8 198" style="enable-background:new 0 0 832.8 198;" xml:space="preserve">
<style type="text/css">
	.st0{fill:url(#XMLID_2_);}
	.st1{fill:url(#XMLID_3_);}
	.st2{fill:url(#XMLID_4_);}
	.st3{fill:#1A1A1A;}
	.st4{fill:url(#XMLID_5_);}
	.st5{fill:url(#XMLID_6_);}
	.st6{fill:url(#XMLID_7_);}
	.st7{fill:url(#XMLID_8_);}
</style>
<g>
	<g id="XMLID_577_">
		
			<linearGradient id="XMLID_2_" gradientUnits="userSpaceOnUse" x1="656.2" y1="102.4822" x2="826.0644" y2="102.4822" gradientTransform="matrix(1 0 0 -1 0 198)">
			<stop  offset="0" style="stop-color:#F7EE23"/>
			<stop  offset="1" style="stop-color:#D8CA21"/>
		</linearGradient>
		<path id="XMLID_580_" class="st0" d="M656.2,66c5.8-16.1,16.3-30.7,31.3-41.5c39.2-28.2,93.9-19.3,122.1,20
			c28.2,39.2,19.3,93.9-20,122.1c-15,10.7-32.1,16.1-49.3,16.4c12.7-1.8,25.1-6.5,36.2-14.5c36.5-26.2,44.8-77.1,18.6-113.6
			S717.9,10,681.4,36.3C670.3,44.3,661.9,54.5,656.2,66z"/>
		
			<linearGradient id="XMLID_3_" gradientUnits="userSpaceOnUse" x1="694.1" y1="101.3407" x2="784.2814" y2="101.3407" gradientTransform="matrix(1 0 0 -1 0 198)">
			<stop  offset="0" style="stop-color:#F7EE23"/>
			<stop  offset="1" style="stop-color:#D8CA21"/>
		</linearGradient>
		<path id="XMLID_579_" class="st1" d="M764.4,135.8c21.4-15.4,26.3-45.3,10.9-66.7c-15.4-21.4-45.3-26.3-66.7-10.9
			c-6.4,4.6-11.1,10.6-14.5,17.2c2.6-3.3,5.5-6.4,9-9c19.9-14.3,47.6-9.8,61.9,10.1c14.3,19.9,9.8,47.6-10.1,61.9
			c-3.6,2.6-7.4,4.3-11.4,5.7C750.8,143,757.9,140.4,764.4,135.8z"/>
		
			<linearGradient id="XMLID_4_" gradientUnits="userSpaceOnUse" x1="725.66" y1="102.1" x2="746.66" y2="102.1" gradientTransform="matrix(1 0 0 -1 0 198)">
			<stop  offset="0" style="stop-color:#F7EE23"/>
			<stop  offset="1" style="stop-color:#D8CA21"/>
		</linearGradient>
		<circle id="XMLID_578_" class="st2" cx="736.2" cy="95.9" r="10.5"/>
	</g>
	<g id="XMLID_394_">
		<g id="XMLID_543_">
			<path id="XMLID_575_" class="st3" d="M116.6,189.1v-57.6h10.6c2.1,0,3.5,1,4.2,2.9l1,3.4c1.1-1,2.3-2,3.5-2.9s2.5-1.6,3.8-2.3
				c1.3-0.6,2.8-1.1,4.4-1.4c1.6-0.3,3.3-0.5,5.2-0.5c3.1,0,5.9,0.5,8.4,1.6c2.4,1.1,4.5,2.6,6.1,4.6c1.7,2,2.9,4.3,3.8,6.9
				c0.9,2.7,1.3,5.6,1.3,8.7v36.6h-17.2v-36.6c0-2.8-0.7-5-2-6.6s-3.2-2.4-5.8-2.4c-1.9,0-3.7,0.4-5.3,1.2c-1.7,0.8-3.3,1.9-4.8,3.3
				v41.1H116.6z"/>
			<path id="XMLID_573_" class="st3" d="M179.9,162.2v-14.1h30v14.1H179.9z"/>
			<path id="XMLID_571_" class="st3" d="M210.5,123v-14.9h64.4V123h-22.8v66.1h-18.8V123H210.5z"/>
			<path id="XMLID_559_" class="st3" d="M272.1,189.1v-57.6h10.2c0.9,0,1.6,0.1,2.1,0.2c0.6,0.1,1,0.4,1.4,0.7s0.7,0.7,0.9,1.2
				c0.2,0.5,0.4,1.1,0.5,1.8l0.8,4.5c1.8-2.9,3.9-5.2,6.2-6.9c2.3-1.7,5-2.5,8-2.5c2.6,0,4.7,0.6,6.3,1.7l-1.1,11.8
				c-0.2,0.8-0.5,1.3-0.9,1.6s-1,0.4-1.7,0.4c-0.3,0-0.7,0-1.2-0.1c-0.5,0-1-0.1-1.5-0.1c-0.5-0.1-1.1-0.1-1.6-0.2
				c-0.5-0.1-1-0.1-1.5-0.1c-2.5,0-4.5,0.7-6,2.1c-1.5,1.4-2.8,3.3-3.8,5.7v35.9L272.1,189.1L272.1,189.1z"/>
			<path id="XMLID_556_" class="st3" d="M310,174.1c0-2,0.5-4.1,1.5-6.3s2.8-4.1,5.4-5.9c2.6-1.8,6-3.2,10.4-4.4
				c4.3-1.2,9.8-1.8,16.4-2V153c0-3.4-0.7-5.8-2.1-7.3s-3.3-2.3-5.9-2.3c-2,0-3.7,0.2-5,0.7s-2.5,1-3.5,1.5c-1,0.6-2,1.1-3,1.5
				s-2.1,0.7-3.5,0.7c-1.2,0-2.2-0.3-3-0.9s-1.5-1.3-2-2.1l-3.1-5.4c3.5-3.1,7.4-5.4,11.6-6.9c4.3-1.5,8.8-2.3,13.7-2.3
				c3.4,0,6.5,0.6,9.3,1.7c2.8,1.1,5.1,2.7,7,4.7s3.4,4.4,4.4,7.2s1.6,5.8,1.6,9.1v36h-7.8c-1.6,0-2.8-0.2-3.6-0.7
				c-0.8-0.5-1.5-1.4-2-2.7l-1.2-3.2c-1.4,1.2-2.8,2.3-4.1,3.2c-1.3,0.9-2.7,1.7-4.1,2.4s-2.9,1.1-4.5,1.4c-1.6,0.3-3.4,0.5-5.4,0.5
				c-2.7,0-5.1-0.3-7.2-1s-4-1.7-5.5-3s-2.7-3-3.5-5C310.4,179,310,176.7,310,174.1z M326.6,173.1c0,1.9,0.5,3.3,1.6,4.1
				s2.7,1.2,4.7,1.2c2.2,0,4.1-0.4,5.8-1.1c1.7-0.8,3.3-2,5-3.7v-7.8c-3.4,0.1-6.3,0.4-8.5,0.9c-2.2,0.4-4,1-5.2,1.6
				c-1.3,0.6-2.2,1.4-2.7,2.2C326.8,171.2,326.6,172.1,326.6,173.1z"/>
			<path id="XMLID_554_" class="st3" d="M368.4,160.1c0-4.2,0.6-8,1.9-11.6s3.1-6.7,5.5-9.4c2.4-2.6,5.5-4.7,9.1-6.2
				s7.7-2.3,12.5-2.3c4.5,0,8.5,0.7,11.9,2.2c3.4,1.4,6.5,3.5,9.2,6.3l-4.6,6.1c-0.5,0.6-1,1.1-1.5,1.5s-1.2,0.6-2.1,0.6
				s-1.6-0.2-2.3-0.6c-0.7-0.4-1.4-0.9-2.3-1.4s-1.9-0.9-3-1.4c-1.2-0.4-2.6-0.6-4.3-0.6c-2.1,0-3.9,0.4-5.5,1.2
				c-1.5,0.8-2.8,1.9-3.8,3.3c-1,1.4-1.8,3.2-2.2,5.3c-0.5,2.1-0.7,4.5-0.7,7.1c0,5.5,1.1,9.8,3.2,12.8s5.1,4.5,8.8,4.5
				c2,0,3.6-0.3,4.7-0.8c1.2-0.5,2.2-1.1,3-1.7c0.8-0.6,1.6-1.2,2.3-1.7c0.7-0.5,1.5-0.8,2.6-0.8c1.4,0,2.4,0.5,3.1,1.5l5,6.2
				c-1.8,2-3.6,3.7-5.6,5s-4,2.3-6,3s-4.1,1.2-6.2,1.5s-4.1,0.4-6.1,0.4c-3.5,0-6.9-0.7-10.1-2s-6.1-3.3-8.5-5.8
				c-2.4-2.6-4.4-5.7-5.8-9.4C369.2,169.1,368.4,164.9,368.4,160.1z"/>
			<path id="XMLID_551_" class="st3" d="M425.5,189.1v-83.2h17.2V152h2.6c1.1,0,1.9-0.1,2.4-0.4c0.5-0.3,1.1-0.8,1.7-1.6l10.9-15.8
				c0.7-0.9,1.4-1.6,2.3-2s1.9-0.7,3.3-0.7h15.8l-14.9,20.2c-1.4,1.8-3.1,3.3-5,4.5c0.9,0.6,1.7,1.4,2.4,2.2c0.7,0.8,1.4,1.8,2,2.9
				l16.2,27.9h-15.6c-1.3,0-2.4-0.2-3.3-0.7c-0.9-0.4-1.7-1.2-2.3-2.2l-10.9-20.4c-0.5-0.9-1-1.5-1.6-1.8s-1.4-0.4-2.5-0.4h-3.3
				v25.5L425.5,189.1L425.5,189.1z"/>
			<path id="XMLID_549_" class="st3" d="M510.5,148.6c0-6,1-11.6,3-16.7c2-5.1,4.9-9.4,8.6-13.1c3.7-3.7,8.3-6.5,13.6-8.6
				c5.3-2,11.2-3,17.8-3c3.4,0,6.5,0.3,9.5,0.8s5.7,1.3,8.2,2.3s4.8,2.1,6.9,3.4c2.1,1.3,3.9,2.8,5.6,4.3l-5.4,8.3
				c-0.9,1.3-2,2.1-3.4,2.4c-0.3,0.1-0.6,0.1-0.9,0.1c-1.1,0-2.2-0.4-3.5-1.1c-1.5-0.9-2.9-1.7-4.2-2.3c-1.3-0.7-2.6-1.2-4-1.6
				s-2.8-0.7-4.3-0.9c-1.5-0.2-3.2-0.3-5.1-0.3c-3.5,0-6.7,0.6-9.6,1.9c-2.8,1.3-5.3,3-7.3,5.3s-3.5,5-4.6,8.2s-1.6,6.7-1.6,10.6
				c0,4.3,0.6,8.1,1.8,11.4c1.2,3.3,2.9,6.1,5.1,8.4c2.2,2.3,4.8,4,7.8,5.2s6.4,1.8,10.1,1.8c2.2,0,4.2-0.2,6-0.6
				c1.8-0.4,3.6-1,5.3-1.7v-12H558c-1.2,0-2.1-0.3-2.8-1s-1-1.5-1-2.5V147H583v34.2c-4.2,3-8.6,5.2-13.3,6.6s-9.6,2-14.7,2
				c-6.7,0-12.8-1-18.3-3.1s-10.2-5-14.1-8.6c-3.9-3.7-6.9-8.1-9-13.1C511.6,160,510.5,154.5,510.5,148.6z"/>
			<path id="XMLID_546_" class="st3" d="M595.5,189.1v-81h28.6c5.7,0,10.6,0.7,14.7,2c4.1,1.4,7.5,3.2,10.1,5.6s4.6,5.2,5.9,8.4
				c1.3,3.2,1.9,6.7,1.9,10.4c0,4-0.7,7.7-2,11.1c-1.3,3.4-3.3,6.2-5.9,8.6c-2.7,2.4-6,4.3-10.2,5.6c-4.1,1.3-8.9,2-14.5,2h-9.8V189
				L595.5,189.1L595.5,189.1z M614.3,147.8h9.8c4.9,0,8.4-1.2,10.6-3.5c2.2-2.3,3.2-5.6,3.2-9.8c0-1.8-0.3-3.5-0.8-5
				c-0.6-1.5-1.4-2.8-2.6-3.9c-1.1-1.1-2.6-1.9-4.3-2.5s-3.8-0.9-6.1-0.9h-9.8L614.3,147.8L614.3,147.8z"/>
			<path id="XMLID_544_" class="st3" d="M660,179.3l5.5-8.8c0.4-0.6,1-1.1,1.7-1.6c0.7-0.4,1.5-0.7,2.4-0.7c1.1,0,2.3,0.4,3.4,1.1
				c1.1,0.7,2.4,1.5,3.9,2.3c1.4,0.8,3.1,1.6,4.9,2.3c1.9,0.7,4,1.1,6.6,1.1c3.4,0,6-0.7,7.9-2.2s2.8-3.9,2.8-7.1
				c0-1.9-0.5-3.4-1.6-4.6c-1-1.2-2.4-2.2-4.1-3c-1.7-0.8-3.6-1.5-5.7-2.1c-2.1-0.6-4.4-1.3-6.6-2c-2.3-0.7-4.5-1.6-6.7-2.7
				c-2.2-1-4.1-2.4-5.8-4.1c-1.7-1.7-3.1-3.9-4.1-6.4c-1-2.6-1.6-5.8-1.6-9.5c0-3.1,0.6-6,1.9-8.9c1.2-2.9,3.1-5.5,5.4-7.8
				c2.4-2.3,5.3-4.1,8.8-5.4s7.4-2,11.9-2c2.5,0,4.9,0.2,7.3,0.6c2.4,0.4,4.6,1,6.7,1.7c2.1,0.8,4.1,1.7,5.9,2.8
				c1.9,1.1,3.5,2.3,5,3.6l-4.7,8.8c-0.5,0.9-1.1,1.6-1.8,2c-0.6,0.4-1.4,0.7-2.4,0.7c-0.9,0-1.8-0.3-2.8-0.8s-2.1-1.1-3.4-1.8
				c-1.2-0.7-2.7-1.3-4.3-1.8s-3.4-0.8-5.4-0.8c-3.5,0-6.1,0.7-7.8,2.2s-2.6,3.5-2.6,6.1c0,1.6,0.5,3,1.5,4c1,1.1,2.4,2,4.1,2.8
				c1.7,0.8,3.6,1.5,5.8,2.1s4.4,1.4,6.7,2.2s4.5,1.7,6.7,2.8s4.1,2.4,5.8,4.1c1.7,1.7,3.1,3.7,4.1,6.1c1,2.4,1.6,5.3,1.6,8.6
				c0,3.7-0.6,7.2-1.9,10.5c-1.3,3.3-3.2,6.1-5.7,8.5s-5.5,4.3-9.2,5.7c-3.6,1.4-7.7,2.1-12.3,2.1c-2.5,0-5.1-0.3-7.8-0.8
				c-2.6-0.5-5.2-1.2-7.6-2.2c-2.5-1-4.8-2.1-6.9-3.4C663.5,182.3,661.6,180.9,660,179.3z"/>
		</g>
		<g id="XMLID_528_">
			<g id="XMLID_541_">
				
					<linearGradient id="XMLID_5_" gradientUnits="userSpaceOnUse" x1="56.4" y1="60.75" x2="108.2" y2="60.75" gradientTransform="matrix(1 0 0 -1 0 198)">
					<stop  offset="0" style="stop-color:#333333"/>
					<stop  offset="0.1809" style="stop-color:#666666"/>
					<stop  offset="0.6223" style="stop-color:#999999"/>
					<stop  offset="1" style="stop-color:#CCCCCC"/>
				</linearGradient>
				<path id="XMLID_542_" class="st4" d="M102.4,84.5c0.5,9.7-1.4,20.5-6.9,29.1c-6.1,9.7-17.2,17.4-28.6,18.9
					c-3,1.2-4.1,1.9-10.5,1.9V190c0,0,51.8-53,51.8-81.1C108.2,100.5,106,91.4,102.4,84.5z"/>
			</g>
			<g id="XMLID_539_">
				
					<linearGradient id="XMLID_6_" gradientUnits="userSpaceOnUse" x1="12.6044" y1="80.5504" x2="76.7268" y2="47.8784" gradientTransform="matrix(1 0 0 -1 0 198)">
					<stop  offset="0" style="stop-color:#847719"/>
					<stop  offset="2.807514e-02" style="stop-color:#93851B"/>
					<stop  offset="9.510726e-02" style="stop-color:#B1A21F"/>
					<stop  offset="0.133" style="stop-color:#BCAD20"/>
					<stop  offset="1" style="stop-color:#F7EE23"/>
				</linearGradient>
				<path id="XMLID_540_" class="st5" d="M31.7,108.9c0-10.7,7-19.8,16.3-23.6c-11.4,1.6-22.2,9.4-28.3,19
					c-5.5,8.6-8.4,18.1-7.8,27.8c8.5,16.5,44.6,57.9,44.6,57.9v-55.5C43.5,134.4,31.7,123,31.7,108.9z"/>
			</g>
			
				<linearGradient id="XMLID_7_" gradientUnits="userSpaceOnUse" x1="17.2331" y1="120.1607" x2="88.059" y2="72.3881" gradientTransform="matrix(1 0 0 -1 0 198)">
				<stop  offset="0" style="stop-color:#F7EE23"/>
				<stop  offset="0.8138" style="stop-color:#D8CA21"/>
				<stop  offset="1" style="stop-color:#847719"/>
			</linearGradient>
			<path id="XMLID_538_" class="st6" d="M103.1,85.7C94.6,69.2,78.3,58,57.5,58C29.7,58,6.9,80.9,6.9,108.9c0,8.3,1.4,16.2,5,23.2
				c-0.5-9.7,2.6-19.2,8-27.8c6.1-9.7,16.8-17.5,28.2-19c3-1.2,6.6-1.9,9.4-1.9c15.3,0,25.9,11.1,25.9,25.2c0,10.7-7.1,20.2-16.4,24
				c11.4-1.6,23.2-9.2,29.4-19.2C101.7,104.6,103.6,95.3,103.1,85.7z"/>
			<g id="XMLID_536_">
				
					<linearGradient id="XMLID_8_" gradientUnits="userSpaceOnUse" x1="21.6823" y1="98.518" x2="78.7153" y2="25.5191" gradientTransform="matrix(1 0 0 -1 0 198)">
					<stop  offset="0" style="stop-color:#847719"/>
					<stop  offset="0.133" style="stop-color:#BCAD20;stop-opacity:0"/>
					<stop  offset="0.3723" style="stop-color:#D8CA21;stop-opacity:0"/>
				</linearGradient>
				<path id="XMLID_537_" class="st7" d="M31.7,108.9c0-10.7,7-19.8,16.3-23.6c-11.4,1.6-22.2,9.4-28.3,19
					c-5.5,8.6-8.4,18.1-7.8,27.8c8.5,16.5,44.6,57.9,44.6,57.9v-55.5C43.5,134.4,31.7,123,31.7,108.9z"/>
			</g>
		</g>
	</g>
</g>
</svg>
